{"title":"Scare PewDiePie (SE1EP3) - LEVEL 3 - HELLO TIMMY [Youtube RED Se","uid":13671799,"size":392387762,"categoryP":"video","categoryS":"tv_shows","magnet":"?xt=urn:btih:d9d690c5f2a40e9882f8155b8ce67941c1fcd69b&amp;dn=Scare+PewDiePie+%28SE1EP3%29+-+LEVEL+3+-+HELLO+TIMMY+%5BYoutube+RED+Se&amp;tr=udp%3A%2F%2Ftracker.leechers-paradise.org%3A6969&amp;tr=udp%3A%2F%2Fzer0day.ch%3A1337&amp;tr=udp%3A%2F%2Fopen.demonii.com%3A1337&amp;tr=udp%3A%2F%2Ftracker.coppersurfer.tk%3A6969&amp;tr=udp%3A%2F%2Fexodus.desync.com%3A6969","seeders":0,"leechers":1,"uploader":"Venoox","files":1,"time":1456349263,"description":"Format : MPEG-4\r\nFormat profile : Base Media / Version 2\r\nCodec ID : mp42 (isom/mp42)\r\nFile size : 374 MiB\r\nDuration : 15mn 31s\r\nOverall bit rate mode : Variable\r\nOverall bit rate : 3 371 Kbps\r\nEncoded date : UTC 2016-02-24 18:31:36\r\nTagged date : UTC 2016-02-24 18:31:36\r\n\r\nVideo\r\nID : 1\r\nFormat : AVC\r\nFormat/Info : Advanced Video Codec\r\nFormat profile :   \r\nFormat settings, CABAC : Yes\r\nFormat settings, ReFrames : 3 frames\r\nCodec ID : avc1\r\nCodec ID/Info : Advanced Video Coding\r\nDuration : 15mn 31s\r\nBit rate : 3 115 Kbps\r\nWidth : 1 920 pixels\r\nHeight : 1 080 pixels\r\nDisplay aspect ratio : 16:9\r\nFrame rate mode : Constant\r\nFrame rate : 30.000 fps\r\nStandard : NTSC\r\nColor space : YUV\r\nChroma subsampling : 4:2:0\r\nBit depth : 8 bits\r\nScan type : Progressive\r\nBits/(Pixel*Frame) : 0.050\r\nStream size : 346 MiB (92%)\r\nLanguage : English\r\nEncoded date : UTC 2016-02-24 18:31:36\r\nTagged date : UTC 2016-02-24 18:31:36\r\nColor range : Limited\r\n\r\nAudio\r\nID : 2\r\nFormat : AAC\r\nFormat/Info : Advanced Audio Codec\r\nFormat profile : LC\r\nCodec ID : 40\r\nDuration : 15mn 31s\r\nBit rate mode : Variable\r\nBit rate : 254 Kbps\r\nMaximum bit rate : 441 Kbps\r\nChannel(s) : 2 channels\r\nChannel positions : Front: L R\r\nSampling rate : 44.1 KHz\r\nFrame rate : 43.066 fps (1024 spf)\r\nCompression mode : Lossy\r\nStream size : 28.2 MiB (8%)\r\nLanguage : English","torrent":{"xt":"urn:btih:d9d690c5f2a40e9882f8155b8ce67941c1fcd69b","amp;dn":"Scare+PewDiePie+%28SE1EP3%29+-+LEVEL+3+-+HELLO+TIMMY+%5BYoutube+RED+Se","amp;tr":["udp%3A%2F%2Ftracker.leechers-paradise.org%3A6969","udp%3A%2F%2Fzer0day.ch%3A1337","udp%3A%2F%2Fopen.demonii.com%3A1337","udp%3A%2F%2Ftracker.coppersurfer.tk%3A6969","udp%3A%2F%2Fexodus.desync.com%3A6969"],"infoHash":"d9d690c5f2a40e9882f8155b8ce67941c1fcd69b","infoHashBuffer":{"type":"Buffer","data":[217,214,144,197,242,164,14,152,130,248,21,91,140,230,121,65,193,252,214,155]},"announce":[],"urlList":[]}}